<mxfile host="app.diagrams.net" modified="2020-08-01T19:42:15.319Z" agent="5.0 (Windows NT 10.0; Win64; x64) AppleWebKit/537.36 (KHTML, like Gecko) Chrome/84.0.4147.105 Safari/537.36" etag="uzcLtuerlP2wyxPjFC_e" version="13.5.8" type="github">
  <diagram id="bkF3rJx9aQUq1Jas1Zl-" name="Page-1">
    <mxGraphModel dx="1038" dy="548" grid="1" gridSize="10" guides="1" tooltips="1" connect="1" arrows="1" fold="1" page="1" pageScale="1" pageWidth="827" pageHeight="1169" background="#ffffff" math="0" shadow="0">
      <root>
        <mxCell id="0" />
        <mxCell id="1" parent="0" />
        <mxCell id="cEq_9N9YUxk8iIV53Lww-46" value="&lt;h2 style=&quot;box-sizing: border-box ; margin-top: 0px ; margin-bottom: 0.5rem ; font-family: , &amp;#34;blinkmacsystemfont&amp;#34; , &amp;#34;segoe ui&amp;#34; , &amp;#34;roboto&amp;#34; , &amp;#34;helvetica neue&amp;#34; , &amp;#34;arial&amp;#34; , sans-serif , &amp;#34;apple color emoji&amp;#34; , &amp;#34;segoe ui emoji&amp;#34; , &amp;#34;segoe ui symbol&amp;#34; ; font-weight: 300 ; line-height: 1.2 ; color: rgb(55 , 58 , 60) ; font-size: 1.875rem ; text-align: left ; background-color: rgb(255 , 255 , 255)&quot;&gt;OOP Assignment â€“ Vehicle Management System&lt;/h2&gt;" style="text;strokeColor=none;fillColor=none;html=1;fontSize=24;fontStyle=1;verticalAlign=middle;align=center;" vertex="1" parent="1">
          <mxGeometry x="314" y="10" width="100" height="40" as="geometry" />
        </mxCell>
        <mxCell id="cEq_9N9YUxk8iIV53Lww-56" value="&lt;p style=&quot;margin: 0px ; margin-top: 4px ; text-align: center&quot;&gt;&lt;span style=&quot;font-weight: 700&quot;&gt;Car Model&lt;/span&gt;&lt;br&gt;&lt;/p&gt;&lt;hr size=&quot;1&quot;&gt;&lt;div style=&quot;height: 2px&quot;&gt;&lt;span&gt;- title : String&lt;/span&gt;&lt;/div&gt;" style="verticalAlign=top;align=left;overflow=fill;fontSize=12;fontFamily=Helvetica;html=1;" vertex="1" parent="1">
          <mxGeometry x="330" y="80" width="140" height="60" as="geometry" />
        </mxCell>
        <mxCell id="cEq_9N9YUxk8iIV53Lww-57" value="&lt;p style=&quot;margin: 0px ; margin-top: 4px ; text-align: center&quot;&gt;&lt;i&gt;&amp;lt;&amp;lt;Interface&amp;gt;&amp;gt;&lt;/i&gt;&lt;br&gt;&lt;b&gt;Car&lt;/b&gt;&lt;/p&gt;&lt;hr size=&quot;1&quot;&gt;&lt;p style=&quot;margin: 0px ; margin-left: 4px&quot;&gt;- registrationNum&lt;br&gt;&lt;/p&gt;&lt;p style=&quot;margin: 0px ; margin-left: 4px&quot;&gt;- year : int&lt;br&gt;&lt;/p&gt;&lt;p style=&quot;margin: 0px ; margin-left: 4px&quot;&gt;- licenseNumber : String&lt;br&gt;&lt;/p&gt;&lt;hr size=&quot;1&quot;&gt;&lt;p style=&quot;margin: 0px ; margin-left: 4px&quot;&gt;+ method1(Type): Type&lt;br&gt;+ method2(Type, Type): Type&lt;/p&gt;" style="verticalAlign=top;align=left;overflow=fill;fontSize=12;fontFamily=Helvetica;html=1;" vertex="1" parent="1">
          <mxGeometry x="314" y="180" width="190" height="140" as="geometry" />
        </mxCell>
      </root>
    </mxGraphModel>
  </diagram>
</mxfile>
